<svg width="960" height="280" viewBox="0 0 960 280" fill="none" xmlns="http://www.w3.org/2000/svg" role="img" aria-labelledby="title desc">
  <title id="title">Tide GoClean Logo</title>
  <desc id="desc">Tide GoClean wordmark with globe symbol and tagline.</desc>
  <defs>
    <clipPath id="markClip">
      <circle cx="140" cy="140" r="104" />
    </clipPath>
    <linearGradient id="waveGrad" x1="34" y1="132" x2="224" y2="168" gradientUnits="userSpaceOnUse">
      <stop stop-color="#F25C05" />
      <stop offset="1" stop-color="#FF8B3D" />
    </linearGradient>
  </defs>

  <circle cx="140" cy="140" r="112" stroke="#003A8F" stroke-width="8" fill="white" />

  <g clip-path="url(#markClip)" stroke="#4CC3F1" stroke-width="4" stroke-linecap="round" opacity="0.85">
    <path d="M42 108C80 92 200 92 238 108" />
    <path d="M38 140C80 124 200 124 242 140" />
    <path d="M42 172C80 188 200 188 238 172" />
    <path d="M96 40C78 90 78 190 96 240" />
    <path d="M140 36C124 90 124 190 140 244" />
    <path d="M184 40C202 90 202 190 184 240" />
  </g>

  <g clip-path="url(#markClip)">
    <path d="M34 164C84 136 158 128 246 150L246 190C160 170 90 176 34 200V164Z" fill="url(#waveGrad)" />
    <path d="M124 165H158V155L188 177L158 199V189H124V165Z" fill="#F25C05" fill-opacity="0.5" />
  </g>

  <text x="298" y="126" fill="#003A8F" font-size="86" font-weight="700" font-family="Montserrat, Poppins, Inter, Arial, sans-serif">Tide GoClean</text>
  <text x="302" y="182" fill="#003A8F" opacity="0.78" font-size="34" font-weight="500" font-family="Montserrat, Poppins, Inter, Arial, sans-serif">Clean Anywhere. Anytime.</text>
</svg>
